G04 EAGLE Gerber RS-274X export*
G75*
%MOMM*%
%FSLAX34Y34*%
%LPD*%
%INSoldermask Top*%
%IPPOS*%
%AMOC8*
5,1,8,0,0,1.08239X$1,22.5*%
G01*
%ADD10P,1.814519X8X202.500000*%
%ADD11R,8.407400X1.930400*%
%ADD12P,1.814519X8X112.500000*%
%ADD13P,1.814519X8X292.500000*%
%ADD14P,1.814519X8X22.500000*%
%ADD15R,2.082800X2.082800*%
%ADD16C,1.930400*%
%ADD17C,1.108000*%


D10*
X699770Y101600D03*
X699770Y127000D03*
X674370Y101600D03*
X674370Y127000D03*
X648970Y101600D03*
X648970Y127000D03*
X623570Y101600D03*
X623570Y127000D03*
D11*
X53340Y101600D03*
X53340Y127000D03*
X53340Y152400D03*
X53340Y177800D03*
X53340Y203200D03*
X53340Y228600D03*
X53340Y254000D03*
X53340Y279400D03*
X53340Y304800D03*
X53340Y330200D03*
X53340Y355600D03*
X53340Y381000D03*
D12*
X812800Y127000D03*
X787400Y127000D03*
X812800Y152400D03*
X787400Y152400D03*
X812800Y177800D03*
X787400Y177800D03*
X812800Y203200D03*
X787400Y203200D03*
X812800Y228600D03*
X787400Y228600D03*
X812800Y254000D03*
X787400Y254000D03*
X812800Y279400D03*
X787400Y279400D03*
X812800Y304800D03*
X787400Y304800D03*
D10*
X685800Y533400D03*
X685800Y508000D03*
X660400Y533400D03*
X660400Y508000D03*
X635000Y533400D03*
X635000Y508000D03*
X609600Y533400D03*
X609600Y508000D03*
X584200Y533400D03*
X584200Y508000D03*
X558800Y533400D03*
X558800Y508000D03*
X533400Y533400D03*
X533400Y508000D03*
X508000Y533400D03*
X508000Y508000D03*
X482600Y533400D03*
X482600Y508000D03*
D13*
X406400Y254000D03*
X431800Y254000D03*
X406400Y228600D03*
X431800Y228600D03*
X406400Y203200D03*
X431800Y203200D03*
X406400Y177800D03*
X431800Y177800D03*
X406400Y431800D03*
X431800Y431800D03*
X406400Y406400D03*
X431800Y406400D03*
X406400Y381000D03*
X431800Y381000D03*
X406400Y76200D03*
X431800Y76200D03*
X406400Y50800D03*
X431800Y50800D03*
X406400Y152400D03*
X431800Y152400D03*
X406400Y127000D03*
X431800Y127000D03*
X406400Y101600D03*
X431800Y101600D03*
X406400Y355092D03*
X431800Y355092D03*
X406400Y329692D03*
X431800Y329692D03*
X406400Y304292D03*
X431800Y304292D03*
X406400Y278892D03*
X431800Y278892D03*
D14*
X711200Y508000D03*
X711200Y533400D03*
X736600Y508000D03*
X736600Y533400D03*
X762000Y508000D03*
X762000Y533400D03*
D13*
X787400Y482600D03*
X812800Y482600D03*
X787400Y457200D03*
X812800Y457200D03*
X787400Y431800D03*
X812800Y431800D03*
X787400Y406400D03*
X812800Y406400D03*
X787400Y381000D03*
X812800Y381000D03*
X787400Y355600D03*
X812800Y355600D03*
X787400Y330200D03*
X812800Y330200D03*
D15*
X606500Y22400D03*
D16*
X631900Y22400D03*
X657300Y22400D03*
X682700Y22400D03*
X708100Y22400D03*
X733500Y22400D03*
D17*
X622300Y192532D03*
X584200Y192532D03*
X596900Y266700D03*
X558800Y192532D03*
X571500Y266700D03*
X478536Y292031D03*
X694720Y292031D03*
X478536Y305308D03*
X478536Y318516D03*
X672620Y318516D03*
X660908Y368808D03*
X736537Y342322D03*
X520192Y266954D03*
X520192Y476640D03*
X546273Y488340D03*
X546100Y266700D03*
M02*
