solid OpenSCAD_Model
  facet normal 0 -1 0
    outer loop
      vertex -43.4 -16.8 -1.4
      vertex 31 -16.8 -1
      vertex -43.4 -16.8 -1
    endloop
  endfacet
  facet normal 0 -1 -0
    outer loop
      vertex 31 -16.8 -1
      vertex -43.4 -16.8 -1.4
      vertex 31 -16.8 -1.4
    endloop
  endfacet
  facet normal 0 1 -0
    outer loop
      vertex 31 0 -1.4
      vertex -43.4 0 -1
      vertex 31 0 -1
    endloop
  endfacet
  facet normal 0 1 0
    outer loop
      vertex -43.4 0 -1
      vertex 31 0 -1.4
      vertex -43.4 0 -1.4
    endloop
  endfacet
  facet normal 0 0 -1
    outer loop
      vertex -43.4 -16.8 -1.4
      vertex 31 0 -1.4
      vertex 31 -16.8 -1.4
    endloop
  endfacet
  facet normal -0 0 -1
    outer loop
      vertex 31 0 -1.4
      vertex -43.4 -16.8 -1.4
      vertex -43.4 0 -1.4
    endloop
  endfacet
  facet normal 1 -0 0
    outer loop
      vertex 31 -16.8 -1
      vertex 31 0 -1.4
      vertex 31 0 -1
    endloop
  endfacet
  facet normal 1 0 0
    outer loop
      vertex 31 0 -1.4
      vertex 31 -16.8 -1
      vertex 31 -16.8 -1.4
    endloop
  endfacet
  facet normal -0 0 1
    outer loop
      vertex -43.4 0 -1
      vertex 31 -16.8 -1
      vertex 31 0 -1
    endloop
  endfacet
  facet normal 0 0 1
    outer loop
      vertex 31 -16.8 -1
      vertex -43.4 0 -1
      vertex -43.4 -16.8 -1
    endloop
  endfacet
  facet normal -1 0 0
    outer loop
      vertex -43.4 -16.8 -1.4
      vertex -43.4 0 -1
      vertex -43.4 0 -1.4
    endloop
  endfacet
  facet normal -1 -0 0
    outer loop
      vertex -43.4 0 -1
      vertex -43.4 -16.8 -1.4
      vertex -43.4 -16.8 -1
    endloop
  endfacet
endsolid OpenSCAD_Model
