M48
;GenerationSoftware,Autodesk,EAGLE,9.5.2*%
;CreationDate,2022-02-21T07:35:38Z*%
FMAT,2
ICI,OFF
METRIC,TZ,000.000
T3C0.600
T2C1.000
T1C1.016
%
G90
M71
T1
X40640Y25400
X81280Y33020
X78740Y33020
X81280Y35560
X78740Y35560
X81280Y38100
X78740Y38100
X81280Y40640
X78740Y40640
X81280Y43180
X78740Y43180
X81280Y45720
X78740Y45720
X81280Y48260
X78740Y48260
X76200Y53340
X69977Y10160
X69977Y12700
X67437Y10160
X67437Y12700
X64897Y10160
X64897Y12700
X62357Y10160
X62357Y12700
X81280Y12700
X78740Y12700
X81280Y15240
X78740Y15240
X81280Y17780
X78740Y17780
X81280Y20320
X78740Y20320
X81280Y22860
X78740Y22860
X81280Y25400
X78740Y25400
X81280Y27940
X78740Y27940
X81280Y30480
X78740Y30480
X68580Y53340
X68580Y50800
X66040Y53340
X66040Y50800
X63500Y53340
X63500Y50800
X60960Y53340
X60960Y50800
X58420Y53340
X58420Y50800
X55880Y53340
X55880Y50800
X53340Y53340
X53340Y50800
X50800Y53340
X50800Y50800
X48260Y53340
X48260Y50800
X76200Y50800
X43180Y25400
X40640Y22860
X43180Y22860
X40640Y20320
X43180Y20320
X40640Y17780
X43180Y17780
X40640Y43180
X43180Y43180
X40640Y40640
X43180Y40640
X40640Y38100
X43180Y38100
X40640Y7620
X43180Y7620
X40640Y5080
X43180Y5080
X40640Y15240
X43180Y15240
X40640Y12700
X43180Y12700
X40640Y10160
X43180Y10160
X40640Y35509
X43180Y35509
X40640Y32969
X43180Y32969
X40640Y30429
X43180Y30429
X40640Y27889
X43180Y27889
X71120Y50800
X71120Y53340
X73660Y50800
X73660Y53340
T2
X73350Y2240
X60650Y2240
X63190Y2240
X65730Y2240
X68270Y2240
X70810Y2240
T3
X54610Y26670
X54627Y48834
X52019Y47664
X52019Y26695
X73654Y34232
X66091Y36881
X67262Y31852
X47854Y31852
X47854Y30531
X69472Y29203
X47854Y29203
X57150Y26670
X55880Y19253
X59690Y26670
X58420Y19253
X62230Y19253
M30