G04 EAGLE Gerber RS-274X export*
G75*
%MOMM*%
%FSLAX34Y34*%
%LPD*%
%INSilkscreen Bottom*%
%IPPOS*%
%AMOC8*
5,1,8,0,0,1.08239X$1,22.5*%
G01*
%ADD10C,0.050800*%
%ADD11R,0.025400X1.625600*%
%ADD12R,0.025400X2.921000*%
%ADD13R,0.025400X0.025400*%
%ADD14R,0.025400X2.997200*%
%ADD15R,0.025400X3.124200*%
%ADD16R,0.025400X3.200400*%
%ADD17R,0.025400X3.302000*%
%ADD18R,0.025400X2.844800*%
%ADD19R,0.025400X3.352800*%
%ADD20R,0.025400X2.895600*%
%ADD21R,0.025400X3.048000*%
%ADD22R,0.025400X3.378200*%
%ADD23R,0.025400X3.149600*%
%ADD24R,0.025400X3.429000*%
%ADD25R,0.025400X3.225800*%
%ADD26R,0.025400X3.454400*%
%ADD27R,0.025400X3.479800*%
%ADD28R,0.025400X3.327400*%
%ADD29R,0.025400X3.505200*%
%ADD30R,0.025400X3.530600*%
%ADD31R,0.025400X3.556000*%
%ADD32R,0.025400X3.581400*%
%ADD33R,0.025400X3.606800*%
%ADD34R,0.025400X3.632200*%
%ADD35R,0.025400X3.403600*%
%ADD36R,0.025400X3.276600*%
%ADD37R,0.025400X3.251200*%
%ADD38R,0.025400X3.073400*%
%ADD39R,0.025400X2.971800*%
%ADD40R,0.025400X1.244600*%
%ADD41R,0.025400X0.050800*%
%ADD42R,0.025400X0.101600*%
%ADD43R,0.025400X0.076200*%
%ADD44R,0.025400X0.812800*%
%ADD45R,0.025400X3.098800*%
%ADD46R,0.025400X3.022600*%
%ADD47R,0.025400X2.819400*%
%ADD48R,0.025400X0.635000*%
%ADD49R,0.025400X1.828800*%
%ADD50R,0.025400X2.946400*%
%ADD51R,0.025400X0.457200*%
%ADD52R,0.025400X3.175000*%
%ADD53R,0.025400X3.657600*%
%ADD54R,0.025400X0.736600*%
%ADD55R,0.025400X2.032000*%
%ADD56R,0.025400X1.930400*%
%ADD57R,0.025400X1.016000*%
%ADD58R,0.025400X1.066800*%
%ADD59R,0.025400X0.609600*%
%ADD60R,0.025400X0.127000*%
%ADD61R,0.025400X2.870200*%
%ADD62R,0.025400X2.794000*%
%ADD63R,0.025400X0.177800*%
%ADD64R,0.025400X1.117600*%
%ADD65R,0.025400X1.524000*%
%ADD66R,0.025400X1.981200*%
%ADD67R,0.025400X2.768600*%
%ADD68R,0.025400X2.438400*%
%ADD69R,0.025400X1.168400*%
%ADD70R,0.025400X1.905000*%
%ADD71R,0.025400X0.838200*%
%ADD72R,0.025400X1.295400*%
%ADD73R,0.025400X2.260600*%
%ADD74R,0.025400X2.209800*%
%ADD75C,0.152400*%


D10*
X762170Y438482D02*
X765899Y438482D01*
X766831Y439414D01*
X766831Y441279D01*
X765899Y442211D01*
X762170Y442211D01*
X761238Y441279D01*
X761238Y439414D01*
X762170Y438482D01*
X765899Y442211D01*
X766831Y449708D02*
X761238Y449708D01*
X766831Y449708D02*
X766831Y453437D01*
X764034Y451573D02*
X764034Y449708D01*
X761238Y455321D02*
X766831Y455321D01*
X761238Y455321D02*
X761238Y459050D01*
X761238Y460935D02*
X764967Y460935D01*
X766831Y462799D01*
X764967Y464663D01*
X761238Y464663D01*
X764034Y464663D02*
X764034Y460935D01*
X766831Y469344D02*
X765899Y470276D01*
X766831Y469344D02*
X766831Y467480D01*
X765899Y466548D01*
X764967Y466548D01*
X764034Y467480D01*
X764034Y469344D01*
X763102Y470276D01*
X762170Y470276D01*
X761238Y469344D01*
X761238Y467480D01*
X762170Y466548D01*
X761238Y472161D02*
X766831Y472161D01*
X764034Y472161D02*
X764034Y475889D01*
X761238Y475889D02*
X766831Y475889D01*
X757687Y440346D02*
X755823Y438482D01*
X757687Y440346D02*
X752094Y440346D01*
X752094Y438482D02*
X752094Y442211D01*
X753026Y449708D02*
X757687Y449708D01*
X753026Y449708D02*
X752094Y450641D01*
X752094Y452505D01*
X753026Y453437D01*
X757687Y453437D01*
X757687Y458118D02*
X756755Y459050D01*
X757687Y458118D02*
X757687Y456254D01*
X756755Y455321D01*
X755823Y455321D01*
X754890Y456254D01*
X754890Y458118D01*
X753958Y459050D01*
X753026Y459050D01*
X752094Y458118D01*
X752094Y456254D01*
X753026Y455321D01*
X757687Y460935D02*
X757687Y464663D01*
X757687Y460935D02*
X752094Y460935D01*
X752094Y464663D01*
X754890Y462799D02*
X754890Y460935D01*
X835914Y447294D02*
X841507Y447294D01*
X839643Y449158D01*
X841507Y451023D01*
X835914Y451023D01*
X841507Y453839D02*
X841507Y455703D01*
X841507Y453839D02*
X840575Y452907D01*
X836846Y452907D01*
X835914Y453839D01*
X835914Y455703D01*
X836846Y456636D01*
X840575Y456636D01*
X841507Y455703D01*
X841507Y458520D02*
X835914Y458520D01*
X835914Y461317D01*
X836846Y462249D01*
X840575Y462249D01*
X841507Y461317D01*
X841507Y458520D01*
X841507Y464133D02*
X841507Y467862D01*
X841507Y464133D02*
X835914Y464133D01*
X835914Y467862D01*
X838710Y465998D02*
X838710Y464133D01*
D11*
X373386Y330077D03*
D12*
X373132Y324362D03*
D13*
X372878Y308868D03*
D14*
X372878Y324489D03*
D15*
X372624Y324108D03*
D16*
X372370Y324235D03*
D17*
X372116Y324235D03*
D18*
X371862Y161929D03*
D19*
X371862Y324235D03*
D20*
X371608Y161929D03*
D19*
X371608Y324235D03*
D21*
X371354Y161675D03*
D22*
X371354Y324108D03*
D23*
X371100Y161675D03*
D24*
X371100Y324108D03*
D25*
X370846Y161548D03*
D26*
X370846Y323981D03*
D17*
X370592Y161675D03*
D27*
X370592Y324108D03*
D28*
X370338Y161548D03*
D29*
X370338Y324235D03*
D22*
X370084Y161548D03*
D30*
X370084Y324108D03*
D24*
X369830Y161548D03*
D31*
X369830Y324235D03*
D26*
X369576Y161421D03*
D31*
X369576Y324235D03*
D27*
X369322Y161548D03*
D32*
X369322Y324108D03*
D30*
X369068Y161548D03*
D32*
X369068Y324108D03*
D30*
X368814Y161548D03*
D32*
X368814Y324108D03*
D31*
X368560Y161675D03*
D32*
X368560Y324108D03*
D31*
X368306Y161675D03*
D32*
X368306Y324108D03*
D31*
X368052Y161675D03*
D32*
X368052Y324108D03*
X367798Y161548D03*
X367798Y324108D03*
X367544Y161548D03*
X367544Y324108D03*
X367290Y161548D03*
X367290Y324108D03*
D33*
X367036Y161675D03*
D32*
X367036Y324108D03*
D33*
X366782Y161675D03*
D32*
X366782Y324108D03*
D33*
X366528Y161675D03*
D32*
X366528Y324108D03*
D33*
X366274Y161675D03*
D32*
X366274Y324108D03*
D33*
X366020Y161675D03*
D32*
X366020Y324108D03*
D33*
X365766Y161675D03*
D32*
X365766Y324108D03*
D33*
X365512Y161675D03*
D32*
X365512Y324108D03*
D33*
X365258Y161675D03*
D32*
X365258Y324108D03*
D33*
X365004Y161675D03*
D32*
X365004Y324108D03*
D34*
X364750Y161802D03*
D32*
X364750Y324108D03*
D34*
X364496Y161802D03*
D32*
X364496Y324108D03*
D34*
X364242Y161802D03*
D32*
X364242Y324108D03*
D34*
X363988Y161802D03*
D32*
X363988Y324108D03*
D34*
X363734Y161802D03*
D32*
X363734Y324108D03*
D34*
X363480Y161802D03*
D32*
X363480Y324108D03*
D34*
X363226Y161802D03*
D32*
X363226Y324108D03*
D34*
X362972Y161802D03*
D32*
X362972Y324108D03*
D34*
X362718Y161802D03*
D32*
X362718Y324108D03*
D34*
X362464Y161802D03*
D32*
X362464Y324108D03*
D34*
X362210Y161802D03*
D32*
X362210Y324108D03*
D34*
X361956Y161802D03*
D32*
X361956Y324108D03*
D34*
X361702Y161802D03*
D32*
X361702Y324108D03*
D34*
X361448Y161802D03*
D32*
X361448Y324108D03*
D34*
X361194Y161802D03*
D32*
X361194Y324108D03*
D34*
X360940Y161802D03*
D32*
X360940Y324108D03*
D34*
X360686Y161802D03*
D32*
X360686Y324108D03*
D34*
X360432Y161802D03*
D32*
X360432Y324108D03*
D34*
X360178Y161802D03*
D32*
X360178Y324108D03*
D34*
X359924Y161802D03*
D32*
X359924Y324108D03*
D34*
X359670Y161802D03*
D32*
X359670Y324108D03*
D33*
X359416Y161929D03*
D32*
X359416Y324108D03*
D33*
X359162Y161929D03*
D32*
X359162Y324108D03*
D33*
X358908Y161929D03*
D32*
X358908Y324108D03*
D33*
X358654Y161929D03*
D32*
X358654Y324108D03*
D33*
X358400Y161929D03*
D32*
X358400Y324108D03*
D33*
X358146Y161929D03*
D32*
X358146Y324108D03*
D33*
X357892Y161929D03*
D32*
X357892Y324108D03*
D33*
X357638Y161929D03*
D32*
X357638Y324108D03*
D33*
X357384Y161929D03*
D32*
X357384Y324108D03*
D33*
X357130Y161929D03*
D32*
X357130Y324108D03*
D33*
X356876Y161929D03*
D32*
X356876Y324108D03*
D33*
X356622Y161929D03*
D32*
X356622Y324108D03*
D33*
X356368Y161929D03*
D32*
X356368Y324108D03*
D33*
X356114Y161929D03*
D32*
X356114Y324108D03*
D33*
X355860Y161929D03*
D32*
X355860Y324108D03*
D33*
X355606Y161929D03*
D32*
X355606Y324108D03*
D33*
X355352Y161929D03*
D32*
X355352Y324108D03*
D33*
X355098Y161929D03*
D32*
X355098Y324108D03*
D33*
X354844Y161929D03*
D32*
X354844Y324108D03*
D33*
X354590Y161929D03*
D32*
X354590Y324108D03*
D33*
X354336Y161929D03*
D32*
X354336Y324108D03*
D33*
X354082Y161929D03*
D32*
X354082Y324108D03*
D33*
X353828Y161929D03*
D32*
X353828Y324108D03*
D33*
X353574Y161929D03*
D32*
X353574Y324108D03*
D33*
X353320Y161929D03*
X353320Y324235D03*
X353066Y161929D03*
X353066Y324235D03*
X352812Y161929D03*
X352812Y324235D03*
X352558Y161929D03*
X352558Y324235D03*
X352304Y161929D03*
X352304Y324235D03*
X352050Y161929D03*
X352050Y324235D03*
X351796Y161929D03*
X351796Y324235D03*
X351542Y161929D03*
X351542Y324235D03*
X351288Y161929D03*
X351288Y324235D03*
X351034Y161929D03*
X351034Y324235D03*
X350780Y161929D03*
X350780Y324235D03*
X350526Y161929D03*
X350526Y324235D03*
X350272Y161929D03*
X350272Y324235D03*
X350018Y161929D03*
X350018Y324235D03*
X349764Y161929D03*
X349764Y324235D03*
X349510Y161929D03*
X349510Y324235D03*
X349256Y161929D03*
X349256Y324235D03*
X349002Y161929D03*
X349002Y324235D03*
X348748Y161929D03*
X348748Y324235D03*
X348494Y161929D03*
X348494Y324235D03*
X348240Y161929D03*
X348240Y324235D03*
X347986Y161929D03*
X347986Y324235D03*
X347732Y161929D03*
X347732Y324235D03*
X347478Y161929D03*
X347478Y324235D03*
X347224Y161929D03*
X347224Y324235D03*
X346970Y161929D03*
X346970Y324235D03*
X346716Y161929D03*
X346716Y324235D03*
X346462Y161929D03*
X346462Y324235D03*
X346208Y161929D03*
X346208Y324235D03*
X345954Y161929D03*
X345954Y324235D03*
X345700Y161929D03*
D32*
X345700Y324362D03*
D33*
X345446Y161929D03*
D32*
X345446Y324362D03*
D33*
X345192Y161929D03*
D32*
X345192Y324362D03*
D33*
X344938Y161929D03*
D32*
X344938Y324362D03*
D33*
X344684Y161929D03*
D32*
X344684Y324362D03*
D33*
X344430Y161929D03*
D32*
X344430Y324362D03*
D33*
X344176Y161929D03*
D32*
X344176Y324362D03*
D33*
X343922Y161929D03*
D32*
X343922Y324362D03*
D33*
X343668Y161929D03*
D32*
X343668Y324362D03*
D33*
X343414Y161929D03*
D32*
X343414Y324362D03*
D33*
X343160Y161929D03*
D32*
X343160Y324362D03*
D33*
X342906Y161929D03*
D32*
X342906Y324362D03*
D33*
X342652Y161929D03*
D32*
X342652Y324362D03*
D33*
X342398Y161929D03*
D32*
X342398Y324362D03*
D33*
X342144Y161929D03*
D32*
X342144Y324362D03*
D33*
X341890Y161929D03*
D32*
X341890Y324362D03*
D33*
X341636Y161929D03*
D32*
X341636Y324362D03*
D33*
X341382Y161929D03*
D31*
X341382Y324235D03*
D33*
X341128Y161929D03*
D31*
X341128Y324235D03*
D33*
X340874Y161929D03*
D31*
X340874Y324235D03*
D32*
X340620Y161802D03*
D30*
X340620Y324362D03*
D32*
X340366Y161802D03*
D29*
X340366Y324235D03*
D32*
X340112Y161802D03*
D27*
X340112Y324362D03*
D32*
X339858Y161802D03*
D26*
X339858Y324235D03*
D31*
X339604Y161675D03*
D35*
X339604Y324235D03*
D30*
X339350Y161802D03*
D19*
X339350Y324235D03*
D30*
X339096Y161802D03*
D28*
X339096Y324362D03*
D27*
X338842Y161802D03*
D36*
X338842Y324108D03*
D27*
X338588Y161802D03*
D37*
X338588Y323981D03*
D26*
X338334Y161675D03*
D23*
X338334Y324235D03*
D22*
X338080Y161802D03*
D38*
X338080Y324108D03*
D19*
X337826Y161675D03*
D39*
X337826Y324108D03*
D28*
X337572Y161548D03*
D40*
X337572Y316488D03*
D13*
X337572Y323092D03*
X337572Y323600D03*
X337572Y324108D03*
X337572Y324616D03*
X337572Y325124D03*
X337572Y325632D03*
X337572Y326140D03*
X337572Y326648D03*
X337572Y327156D03*
X337572Y327664D03*
X337572Y328172D03*
X337572Y328680D03*
X337572Y329188D03*
X337572Y329696D03*
X337572Y330204D03*
X337572Y330712D03*
X337572Y331220D03*
X337572Y331728D03*
X337572Y332236D03*
X337572Y332744D03*
X337572Y333252D03*
X337572Y333760D03*
X337572Y334268D03*
X337572Y334776D03*
X337572Y335284D03*
X337572Y335792D03*
X337572Y336300D03*
X337572Y336808D03*
X337572Y337316D03*
D41*
X337572Y337951D03*
D36*
X337318Y161548D03*
D42*
X337318Y310773D03*
D43*
X337318Y311916D03*
X337318Y312932D03*
X337318Y313948D03*
D44*
X337318Y318647D03*
D25*
X337064Y161548D03*
D45*
X336810Y161675D03*
D46*
X336556Y161548D03*
D47*
X336302Y161294D03*
D13*
X336302Y175772D03*
D42*
X336048Y147959D03*
D41*
X336048Y148975D03*
D43*
X336048Y149864D03*
X336048Y150880D03*
X336048Y151896D03*
X336048Y152912D03*
X336048Y153928D03*
X336048Y154944D03*
X336048Y155960D03*
X336048Y156976D03*
X336048Y157992D03*
X336048Y159008D03*
X336048Y160024D03*
X336048Y161040D03*
X336048Y162056D03*
X336048Y163072D03*
X336048Y164088D03*
X336048Y165104D03*
X336048Y166120D03*
X336048Y167136D03*
X336048Y168152D03*
D48*
X336048Y171962D03*
D49*
X333000Y370463D03*
D50*
X332746Y365383D03*
D45*
X332492Y365129D03*
D15*
X332238Y365256D03*
D51*
X331984Y254385D03*
D16*
X331984Y365383D03*
D12*
X331730Y243590D03*
D17*
X331730Y365129D03*
D38*
X331476Y243336D03*
D19*
X331476Y365129D03*
D23*
X331222Y243209D03*
D19*
X331222Y365129D03*
D16*
X330968Y243209D03*
D22*
X330968Y365256D03*
D47*
X330714Y121924D03*
D36*
X330714Y243336D03*
D24*
X330714Y365256D03*
D46*
X330460Y121416D03*
D17*
X330460Y243209D03*
D27*
X330460Y365002D03*
D15*
X330206Y121416D03*
D19*
X330206Y243209D03*
D29*
X330206Y365129D03*
D52*
X329952Y121416D03*
D35*
X329952Y243209D03*
D29*
X329952Y365129D03*
D25*
X329698Y121416D03*
D24*
X329698Y243336D03*
D30*
X329698Y365002D03*
D17*
X329444Y121289D03*
D27*
X329444Y243336D03*
D31*
X329444Y365129D03*
D28*
X329190Y121416D03*
D29*
X329190Y243209D03*
D31*
X329190Y365129D03*
D22*
X328936Y121416D03*
D29*
X328936Y243209D03*
D32*
X328936Y365002D03*
D24*
X328682Y121416D03*
D30*
X328682Y243336D03*
D32*
X328682Y365002D03*
D27*
X328428Y121416D03*
D31*
X328428Y243209D03*
D32*
X328428Y365002D03*
D29*
X328174Y121289D03*
D31*
X328174Y243209D03*
D32*
X328174Y365002D03*
D29*
X327920Y121289D03*
D31*
X327920Y243209D03*
D32*
X327920Y365002D03*
D30*
X327666Y121416D03*
D31*
X327666Y243209D03*
D33*
X327666Y364875D03*
D31*
X327412Y121289D03*
D32*
X327412Y243082D03*
D33*
X327412Y364875D03*
D31*
X327158Y121289D03*
D33*
X327158Y243209D03*
X327158Y364875D03*
D31*
X326904Y121289D03*
D33*
X326904Y243209D03*
X326904Y364875D03*
D31*
X326650Y121289D03*
D33*
X326650Y243209D03*
X326650Y364875D03*
D31*
X326396Y121289D03*
D33*
X326396Y243209D03*
X326396Y364875D03*
D34*
X326142Y121670D03*
D33*
X326142Y243209D03*
X326142Y364875D03*
D34*
X325888Y121670D03*
D33*
X325888Y243209D03*
X325888Y364875D03*
D34*
X325634Y121670D03*
D33*
X325634Y243209D03*
X325634Y364875D03*
D34*
X325380Y121670D03*
D33*
X325380Y243209D03*
X325380Y364875D03*
D34*
X325126Y121670D03*
D33*
X325126Y243209D03*
X325126Y364875D03*
D34*
X324872Y121670D03*
D33*
X324872Y243209D03*
D32*
X324872Y365002D03*
D34*
X324618Y121670D03*
D33*
X324618Y243209D03*
D32*
X324618Y365002D03*
D34*
X324364Y121670D03*
D33*
X324364Y243209D03*
D32*
X324364Y365002D03*
D34*
X324110Y121670D03*
D33*
X324110Y243209D03*
D32*
X324110Y365002D03*
D34*
X323856Y121670D03*
D32*
X323856Y243336D03*
X323856Y365002D03*
D34*
X323602Y121670D03*
D32*
X323602Y243336D03*
X323602Y365002D03*
D34*
X323348Y121670D03*
D32*
X323348Y243336D03*
X323348Y365002D03*
D34*
X323094Y121670D03*
D32*
X323094Y243336D03*
X323094Y365002D03*
D34*
X322840Y121670D03*
D32*
X322840Y243336D03*
X322840Y365002D03*
D34*
X322586Y121670D03*
D32*
X322586Y243336D03*
X322586Y365002D03*
D34*
X322332Y121670D03*
D32*
X322332Y243336D03*
X322332Y365002D03*
D34*
X322078Y121670D03*
D32*
X322078Y243336D03*
X322078Y365002D03*
D34*
X321824Y121670D03*
D32*
X321824Y243336D03*
X321824Y365002D03*
D34*
X321570Y121670D03*
D32*
X321570Y243336D03*
X321570Y365002D03*
D34*
X321316Y121670D03*
D32*
X321316Y243336D03*
X321316Y365002D03*
D34*
X321062Y121670D03*
D32*
X321062Y243336D03*
X321062Y365002D03*
D34*
X320808Y121670D03*
D32*
X320808Y243336D03*
X320808Y365002D03*
D34*
X320554Y121670D03*
D32*
X320554Y243336D03*
X320554Y365002D03*
D34*
X320300Y121670D03*
D32*
X320300Y243336D03*
X320300Y365002D03*
D34*
X320046Y121670D03*
D32*
X320046Y243336D03*
X320046Y365002D03*
D34*
X319792Y121670D03*
D32*
X319792Y243336D03*
X319792Y365002D03*
D34*
X319538Y121670D03*
D32*
X319538Y243336D03*
X319538Y365002D03*
D34*
X319284Y121670D03*
D32*
X319284Y243336D03*
X319284Y365002D03*
D34*
X319030Y121670D03*
D32*
X319030Y243336D03*
X319030Y365002D03*
D34*
X318776Y121670D03*
D32*
X318776Y243336D03*
X318776Y365002D03*
D34*
X318522Y121670D03*
D32*
X318522Y243336D03*
X318522Y365002D03*
D53*
X318268Y121797D03*
D32*
X318268Y243336D03*
X318268Y365002D03*
D53*
X318014Y121797D03*
D32*
X318014Y243336D03*
X318014Y365002D03*
D53*
X317760Y121797D03*
D32*
X317760Y243336D03*
X317760Y365002D03*
D53*
X317506Y121797D03*
D32*
X317506Y243336D03*
X317506Y365002D03*
D53*
X317252Y121797D03*
D32*
X317252Y243336D03*
X317252Y365002D03*
D53*
X316998Y121797D03*
D32*
X316998Y243336D03*
X316998Y365002D03*
D53*
X316744Y121797D03*
D32*
X316744Y243336D03*
X316744Y365002D03*
D53*
X316490Y121797D03*
D32*
X316490Y243336D03*
X316490Y365002D03*
D53*
X316236Y121797D03*
D32*
X316236Y243336D03*
X316236Y365002D03*
D53*
X315982Y121797D03*
D32*
X315982Y243336D03*
X315982Y365002D03*
D53*
X315728Y121797D03*
D32*
X315728Y243336D03*
X315728Y365002D03*
D53*
X315474Y121797D03*
D32*
X315474Y243336D03*
X315474Y365002D03*
D53*
X315220Y121797D03*
D32*
X315220Y243336D03*
X315220Y365002D03*
D53*
X314966Y121797D03*
D32*
X314966Y243336D03*
X314966Y365002D03*
D53*
X314712Y121797D03*
D32*
X314712Y243336D03*
X314712Y365002D03*
D53*
X314458Y121797D03*
D32*
X314458Y243336D03*
X314458Y365002D03*
D53*
X314204Y121797D03*
D32*
X314204Y243336D03*
X314204Y365002D03*
D53*
X313950Y121797D03*
D32*
X313950Y243336D03*
X313950Y365002D03*
D53*
X313696Y121797D03*
D32*
X313696Y243336D03*
X313696Y365002D03*
D53*
X313442Y121797D03*
D32*
X313442Y243336D03*
X313442Y365002D03*
D53*
X313188Y121797D03*
D32*
X313188Y243336D03*
X313188Y365002D03*
D53*
X312934Y121797D03*
D32*
X312934Y243336D03*
X312934Y365002D03*
D53*
X312680Y121797D03*
D32*
X312680Y243336D03*
X312680Y365002D03*
D53*
X312426Y121797D03*
D32*
X312426Y243336D03*
X312426Y365002D03*
D53*
X312172Y121797D03*
D32*
X312172Y243336D03*
X312172Y365002D03*
D53*
X311918Y121797D03*
D32*
X311918Y243336D03*
X311918Y365002D03*
D53*
X311664Y121797D03*
D32*
X311664Y243336D03*
X311664Y365002D03*
D53*
X311410Y121797D03*
D32*
X311410Y243336D03*
X311410Y365002D03*
D53*
X311156Y121797D03*
D32*
X311156Y243336D03*
X311156Y365002D03*
D53*
X310902Y121797D03*
D32*
X310902Y243336D03*
D33*
X310902Y365129D03*
D53*
X310648Y121797D03*
D32*
X310648Y243336D03*
D34*
X310648Y365256D03*
D53*
X310394Y121797D03*
D32*
X310394Y243336D03*
D33*
X310394Y365129D03*
D53*
X310140Y121797D03*
D32*
X310140Y243336D03*
D33*
X310140Y365129D03*
D53*
X309886Y121797D03*
D32*
X309886Y243336D03*
D33*
X309886Y365129D03*
D53*
X309632Y121797D03*
D32*
X309632Y243336D03*
D33*
X309632Y365129D03*
D53*
X309378Y121797D03*
D32*
X309378Y243336D03*
D33*
X309378Y365129D03*
D53*
X309124Y121797D03*
D32*
X309124Y243336D03*
D33*
X309124Y365129D03*
D53*
X308870Y121797D03*
D32*
X308870Y243336D03*
D33*
X308870Y365129D03*
D53*
X308616Y121797D03*
D32*
X308616Y243336D03*
D33*
X308616Y365129D03*
D53*
X308362Y121797D03*
D32*
X308362Y243336D03*
D33*
X308362Y365129D03*
D53*
X308108Y121797D03*
D32*
X308108Y243336D03*
D33*
X308108Y365129D03*
D53*
X307854Y121797D03*
D32*
X307854Y243336D03*
D33*
X307854Y365129D03*
D53*
X307600Y121797D03*
D32*
X307600Y243336D03*
D33*
X307600Y365129D03*
D53*
X307346Y121797D03*
D32*
X307346Y243336D03*
D33*
X307346Y365129D03*
D53*
X307092Y121797D03*
D32*
X307092Y243336D03*
D33*
X307092Y365129D03*
D53*
X306838Y121797D03*
D32*
X306838Y243336D03*
D33*
X306838Y365129D03*
D53*
X306584Y121797D03*
D32*
X306584Y243336D03*
D33*
X306584Y365129D03*
D53*
X306330Y121797D03*
D32*
X306330Y243336D03*
D33*
X306330Y365129D03*
D53*
X306076Y121797D03*
D32*
X306076Y243336D03*
D33*
X306076Y365129D03*
D53*
X305822Y121797D03*
D32*
X305822Y243336D03*
D33*
X305822Y365129D03*
D53*
X305568Y121797D03*
D32*
X305568Y243336D03*
D33*
X305568Y365129D03*
D53*
X305314Y121797D03*
D32*
X305314Y243336D03*
D33*
X305314Y365129D03*
D53*
X305060Y121797D03*
D32*
X305060Y243336D03*
D33*
X305060Y365129D03*
D53*
X304806Y121797D03*
D32*
X304806Y243336D03*
D33*
X304806Y365129D03*
D53*
X304552Y121797D03*
D32*
X304552Y243336D03*
D33*
X304552Y365129D03*
D53*
X304298Y121797D03*
D32*
X304298Y243336D03*
D33*
X304298Y365129D03*
D53*
X304044Y121797D03*
D32*
X304044Y243336D03*
D33*
X304044Y365129D03*
D53*
X303790Y121797D03*
D32*
X303790Y243336D03*
D33*
X303790Y365129D03*
D53*
X303536Y121797D03*
D32*
X303536Y243336D03*
D33*
X303536Y365129D03*
D53*
X303282Y121797D03*
D32*
X303282Y243336D03*
D33*
X303282Y365129D03*
D53*
X303028Y121797D03*
D32*
X303028Y243336D03*
D33*
X303028Y365129D03*
D53*
X302774Y121797D03*
D32*
X302774Y243336D03*
D33*
X302774Y365129D03*
D53*
X302520Y121797D03*
D32*
X302520Y243336D03*
D33*
X302520Y365129D03*
D53*
X302266Y121797D03*
D32*
X302266Y243336D03*
D33*
X302266Y365129D03*
D53*
X302012Y121797D03*
D32*
X302012Y243336D03*
D33*
X302012Y365129D03*
D53*
X301758Y121797D03*
D32*
X301758Y243336D03*
D34*
X301758Y365256D03*
D53*
X301504Y121797D03*
D32*
X301504Y243336D03*
X301504Y365256D03*
D53*
X301250Y121797D03*
D32*
X301250Y243336D03*
D31*
X301250Y365129D03*
D53*
X300996Y121797D03*
D32*
X300996Y243336D03*
D31*
X300996Y365129D03*
D53*
X300742Y121797D03*
D32*
X300742Y243336D03*
D31*
X300742Y365129D03*
D53*
X300488Y121797D03*
D32*
X300488Y243336D03*
D30*
X300488Y365256D03*
D53*
X300234Y121797D03*
D32*
X300234Y243336D03*
D30*
X300234Y365256D03*
D34*
X299980Y121924D03*
D32*
X299980Y243336D03*
D29*
X299980Y365129D03*
D31*
X299726Y121543D03*
D30*
X299726Y243336D03*
D26*
X299726Y365383D03*
D31*
X299472Y121543D03*
D30*
X299472Y243336D03*
D24*
X299472Y365256D03*
D32*
X299218Y121670D03*
D30*
X299218Y243336D03*
D35*
X299218Y365129D03*
D31*
X298964Y121543D03*
D30*
X298964Y243336D03*
D19*
X298964Y365129D03*
D31*
X298710Y121543D03*
D26*
X298710Y243463D03*
D17*
X298710Y365129D03*
D30*
X298456Y121416D03*
D26*
X298456Y243463D03*
D37*
X298456Y365129D03*
D29*
X298202Y121543D03*
D24*
X298202Y243336D03*
D16*
X298202Y365129D03*
D27*
X297948Y121670D03*
D22*
X297948Y243336D03*
D23*
X297948Y365129D03*
D29*
X297694Y121543D03*
D28*
X297694Y243336D03*
D38*
X297694Y365002D03*
D26*
X297440Y121543D03*
D36*
X297440Y243336D03*
D50*
X297440Y364875D03*
D35*
X297186Y121543D03*
D25*
X297186Y243336D03*
D54*
X297186Y355096D03*
D13*
X297186Y359668D03*
X297186Y360684D03*
X297186Y361700D03*
X297186Y362716D03*
X297186Y363732D03*
X297186Y364748D03*
X297186Y365764D03*
X297186Y366780D03*
X297186Y367796D03*
X297186Y368812D03*
D35*
X296932Y121543D03*
D23*
X296932Y243209D03*
D19*
X296678Y121543D03*
D45*
X296678Y243209D03*
D17*
X296424Y121543D03*
D14*
X296424Y243209D03*
D25*
X296170Y121416D03*
D55*
X296170Y239399D03*
D23*
X295916Y121543D03*
D45*
X295662Y121289D03*
D21*
X295408Y121289D03*
D47*
X295154Y121162D03*
D56*
X292360Y370209D03*
D50*
X292106Y365637D03*
D57*
X291852Y292993D03*
D38*
X291852Y365510D03*
D58*
X291598Y292993D03*
D15*
X291598Y365510D03*
D59*
X291344Y254131D03*
D12*
X291344Y284484D03*
D16*
X291344Y365637D03*
D60*
X291090Y215650D03*
D12*
X291090Y243844D03*
D45*
X291090Y284357D03*
D36*
X291090Y365510D03*
D61*
X290836Y203458D03*
D21*
X290836Y243717D03*
D16*
X290836Y284357D03*
D22*
X290836Y365510D03*
D46*
X290582Y203204D03*
D45*
X290582Y243717D03*
D37*
X290582Y284357D03*
D22*
X290582Y365510D03*
D38*
X290328Y203204D03*
D23*
X290328Y243717D03*
D17*
X290328Y284357D03*
D22*
X290328Y365510D03*
D62*
X290074Y122305D03*
D23*
X290074Y203077D03*
D37*
X290074Y243717D03*
D19*
X290074Y284357D03*
D24*
X290074Y365510D03*
D14*
X289820Y122051D03*
D37*
X289820Y203077D03*
D19*
X289820Y243717D03*
D22*
X289820Y284230D03*
D27*
X289820Y365510D03*
D15*
X289566Y121924D03*
D17*
X289566Y203077D03*
D22*
X289566Y243590D03*
D24*
X289566Y284230D03*
D27*
X289566Y365510D03*
D25*
X289312Y121924D03*
D19*
X289312Y203077D03*
D35*
X289312Y243463D03*
D26*
X289312Y284357D03*
D29*
X289312Y365383D03*
D36*
X289058Y121924D03*
D22*
X289058Y202950D03*
D24*
X289058Y243590D03*
D26*
X289058Y284357D03*
D31*
X289058Y365383D03*
D28*
X288804Y121924D03*
D35*
X288804Y203077D03*
D26*
X288804Y243717D03*
D27*
X288804Y284230D03*
D31*
X288804Y365383D03*
D22*
X288550Y121924D03*
D26*
X288550Y203077D03*
D27*
X288550Y243590D03*
X288550Y284230D03*
D32*
X288550Y365510D03*
D35*
X288296Y121797D03*
D27*
X288296Y202950D03*
D29*
X288296Y243717D03*
D30*
X288296Y284230D03*
D32*
X288296Y365256D03*
D24*
X288042Y121670D03*
D29*
X288042Y203077D03*
D30*
X288042Y243590D03*
D31*
X288042Y284103D03*
D32*
X288042Y365256D03*
D26*
X287788Y121797D03*
D29*
X287788Y203077D03*
D31*
X287788Y243463D03*
X287788Y284103D03*
D32*
X287788Y365256D03*
D26*
X287534Y121797D03*
D30*
X287534Y202950D03*
D31*
X287534Y243463D03*
X287534Y284103D03*
D32*
X287534Y365256D03*
D29*
X287280Y121797D03*
D31*
X287280Y202823D03*
X287280Y243463D03*
X287280Y284103D03*
D33*
X287280Y365129D03*
D30*
X287026Y121670D03*
D32*
X287026Y202950D03*
X287026Y243590D03*
D31*
X287026Y284103D03*
D33*
X287026Y365129D03*
D29*
X286772Y121797D03*
D31*
X286772Y202823D03*
D32*
X286772Y243590D03*
D31*
X286772Y284103D03*
D33*
X286772Y365129D03*
D31*
X286518Y121797D03*
D32*
X286518Y202950D03*
D33*
X286518Y243717D03*
D32*
X286518Y283976D03*
D33*
X286518Y365129D03*
D32*
X286264Y121670D03*
D33*
X286264Y203077D03*
X286264Y243717D03*
D32*
X286264Y283976D03*
D33*
X286264Y365129D03*
X286010Y121797D03*
X286010Y203077D03*
X286010Y243717D03*
D31*
X286010Y284103D03*
D33*
X286010Y365129D03*
X285756Y121797D03*
X285756Y203077D03*
X285756Y243717D03*
D31*
X285756Y284103D03*
D33*
X285756Y365129D03*
X285502Y121797D03*
D13*
X285502Y140212D03*
D33*
X285502Y203077D03*
X285502Y243717D03*
D31*
X285502Y284103D03*
D32*
X285502Y365256D03*
D53*
X285248Y122051D03*
D33*
X285248Y203077D03*
X285248Y243717D03*
D31*
X285248Y284103D03*
D32*
X285248Y365256D03*
D53*
X284994Y122051D03*
D33*
X284994Y203077D03*
X284994Y243717D03*
D31*
X284994Y284103D03*
D32*
X284994Y365256D03*
D53*
X284740Y122051D03*
D33*
X284740Y203077D03*
X284740Y243717D03*
D31*
X284740Y284103D03*
D32*
X284740Y365256D03*
D53*
X284486Y122051D03*
D33*
X284486Y203077D03*
X284486Y243717D03*
D31*
X284486Y284103D03*
D32*
X284486Y365256D03*
D53*
X284232Y122051D03*
D33*
X284232Y203077D03*
X284232Y243717D03*
D31*
X284232Y284103D03*
D32*
X284232Y365256D03*
D53*
X283978Y122051D03*
D33*
X283978Y203077D03*
X283978Y243717D03*
D31*
X283978Y284103D03*
D32*
X283978Y365256D03*
D53*
X283724Y122051D03*
D33*
X283724Y203077D03*
X283724Y243717D03*
D31*
X283724Y284103D03*
D32*
X283724Y365256D03*
D53*
X283470Y122051D03*
D33*
X283470Y203077D03*
X283470Y243717D03*
D31*
X283470Y284103D03*
D32*
X283470Y365256D03*
D53*
X283216Y122051D03*
D33*
X283216Y203077D03*
X283216Y243717D03*
D31*
X283216Y284103D03*
D32*
X283216Y365256D03*
D53*
X282962Y122051D03*
D33*
X282962Y203077D03*
X282962Y243717D03*
D31*
X282962Y284103D03*
D32*
X282962Y365256D03*
D53*
X282708Y122051D03*
D33*
X282708Y203077D03*
X282708Y243717D03*
D31*
X282708Y284103D03*
D32*
X282708Y365256D03*
D53*
X282454Y122051D03*
D33*
X282454Y203077D03*
X282454Y243717D03*
D31*
X282454Y284103D03*
D32*
X282454Y365256D03*
D53*
X282200Y122051D03*
D33*
X282200Y203077D03*
X282200Y243717D03*
D31*
X282200Y284103D03*
D32*
X282200Y365256D03*
D53*
X281946Y122051D03*
D33*
X281946Y203077D03*
X281946Y243717D03*
D31*
X281946Y284103D03*
D32*
X281946Y365256D03*
D53*
X281692Y122051D03*
D33*
X281692Y203077D03*
X281692Y243717D03*
D31*
X281692Y284103D03*
D32*
X281692Y365256D03*
D53*
X281438Y122051D03*
D33*
X281438Y203077D03*
X281438Y243717D03*
D31*
X281438Y284103D03*
D32*
X281438Y365256D03*
D53*
X281184Y122051D03*
D33*
X281184Y203077D03*
X281184Y243717D03*
D31*
X281184Y284103D03*
D32*
X281184Y365256D03*
D53*
X280930Y122051D03*
D33*
X280930Y203077D03*
X280930Y243717D03*
D31*
X280930Y284103D03*
D32*
X280930Y365256D03*
D53*
X280676Y122051D03*
D33*
X280676Y203077D03*
X280676Y243717D03*
D31*
X280676Y284103D03*
D32*
X280676Y365256D03*
D53*
X280422Y122051D03*
D33*
X280422Y203077D03*
X280422Y243717D03*
D31*
X280422Y284103D03*
D32*
X280422Y365256D03*
D53*
X280168Y122051D03*
D33*
X280168Y203077D03*
X280168Y243717D03*
D31*
X280168Y284103D03*
D32*
X280168Y365256D03*
D53*
X279914Y122051D03*
D34*
X279914Y203204D03*
D33*
X279914Y243717D03*
D32*
X279914Y284230D03*
X279914Y365256D03*
D53*
X279660Y122051D03*
D34*
X279660Y203204D03*
D33*
X279660Y243717D03*
X279660Y284357D03*
D32*
X279660Y365256D03*
D53*
X279406Y122051D03*
D34*
X279406Y203204D03*
D33*
X279406Y243717D03*
X279406Y284357D03*
D32*
X279406Y365256D03*
D53*
X279152Y122051D03*
D34*
X279152Y203204D03*
D33*
X279152Y243717D03*
X279152Y284357D03*
D32*
X279152Y365256D03*
D53*
X278898Y122051D03*
D34*
X278898Y203204D03*
D33*
X278898Y243717D03*
X278898Y284357D03*
D32*
X278898Y365256D03*
D53*
X278644Y122051D03*
D34*
X278644Y203204D03*
D33*
X278644Y243717D03*
X278644Y284357D03*
D32*
X278644Y365256D03*
D53*
X278390Y122051D03*
D34*
X278390Y203204D03*
D33*
X278390Y243717D03*
X278390Y284357D03*
D32*
X278390Y365256D03*
D53*
X278136Y122051D03*
D34*
X278136Y203204D03*
D33*
X278136Y243717D03*
X278136Y284357D03*
D32*
X278136Y365256D03*
D53*
X277882Y122051D03*
D34*
X277882Y203204D03*
D33*
X277882Y243717D03*
X277882Y284357D03*
D32*
X277882Y365256D03*
D53*
X277628Y122051D03*
D34*
X277628Y203204D03*
D33*
X277628Y243717D03*
X277628Y284357D03*
D32*
X277628Y365256D03*
D53*
X277374Y122051D03*
D34*
X277374Y203204D03*
D33*
X277374Y243717D03*
X277374Y284357D03*
D32*
X277374Y365256D03*
D53*
X277120Y122051D03*
D34*
X277120Y203204D03*
D33*
X277120Y243717D03*
X277120Y284357D03*
D32*
X277120Y365256D03*
D53*
X276866Y122051D03*
D34*
X276866Y203204D03*
D33*
X276866Y243717D03*
X276866Y284357D03*
D32*
X276866Y365256D03*
D53*
X276612Y122051D03*
D34*
X276612Y203204D03*
D33*
X276612Y243717D03*
X276612Y284357D03*
D32*
X276612Y365256D03*
D53*
X276358Y122051D03*
D34*
X276358Y203204D03*
D33*
X276358Y243717D03*
X276358Y284357D03*
D32*
X276358Y365256D03*
D53*
X276104Y122051D03*
D34*
X276104Y203204D03*
D33*
X276104Y243717D03*
X276104Y284357D03*
D32*
X276104Y365256D03*
D53*
X275850Y122051D03*
D34*
X275850Y203204D03*
D33*
X275850Y243717D03*
X275850Y284357D03*
D32*
X275850Y365256D03*
D53*
X275596Y122051D03*
D34*
X275596Y203204D03*
D33*
X275596Y243717D03*
X275596Y284357D03*
D32*
X275596Y365256D03*
D53*
X275342Y122051D03*
D34*
X275342Y203204D03*
D33*
X275342Y243717D03*
X275342Y284357D03*
D32*
X275342Y365256D03*
D53*
X275088Y122051D03*
D34*
X275088Y203204D03*
D33*
X275088Y243717D03*
X275088Y284357D03*
D32*
X275088Y365256D03*
D53*
X274834Y122051D03*
D34*
X274834Y203204D03*
D33*
X274834Y243717D03*
X274834Y284357D03*
D32*
X274834Y365256D03*
D53*
X274580Y122051D03*
D34*
X274580Y203204D03*
D33*
X274580Y243717D03*
X274580Y284357D03*
D32*
X274580Y365256D03*
D53*
X274326Y122051D03*
D34*
X274326Y203204D03*
D33*
X274326Y243717D03*
X274326Y284357D03*
D32*
X274326Y365256D03*
D53*
X274072Y122051D03*
D34*
X274072Y203204D03*
D33*
X274072Y243717D03*
X274072Y284357D03*
D32*
X274072Y365256D03*
D53*
X273818Y122051D03*
D34*
X273818Y203204D03*
D33*
X273818Y243717D03*
X273818Y284357D03*
D32*
X273818Y365256D03*
D53*
X273564Y122051D03*
D34*
X273564Y203204D03*
D33*
X273564Y243717D03*
X273564Y284357D03*
D32*
X273564Y365256D03*
D53*
X273310Y122051D03*
D34*
X273310Y203204D03*
D33*
X273310Y243717D03*
X273310Y284357D03*
D32*
X273310Y365256D03*
D53*
X273056Y122051D03*
D34*
X273056Y203204D03*
D33*
X273056Y243717D03*
X273056Y284357D03*
D32*
X273056Y365256D03*
D53*
X272802Y122051D03*
D34*
X272802Y203204D03*
D33*
X272802Y243717D03*
X272802Y284357D03*
D32*
X272802Y365256D03*
D53*
X272548Y122051D03*
D34*
X272548Y203204D03*
D33*
X272548Y243717D03*
X272548Y284357D03*
D32*
X272548Y365256D03*
D53*
X272294Y122051D03*
D34*
X272294Y203204D03*
D33*
X272294Y243717D03*
X272294Y284357D03*
D32*
X272294Y365256D03*
D53*
X272040Y122051D03*
D34*
X272040Y203204D03*
D33*
X272040Y243717D03*
X272040Y284357D03*
D32*
X272040Y365256D03*
D53*
X271786Y122051D03*
D34*
X271786Y203204D03*
D33*
X271786Y243717D03*
X271786Y284357D03*
D32*
X271786Y365256D03*
D53*
X271532Y122051D03*
D34*
X271532Y203204D03*
D33*
X271532Y243717D03*
X271532Y284357D03*
D32*
X271532Y365256D03*
D53*
X271278Y122051D03*
D34*
X271278Y203204D03*
D33*
X271278Y243717D03*
X271278Y284357D03*
D32*
X271278Y365256D03*
D53*
X271024Y122051D03*
D34*
X271024Y203204D03*
D33*
X271024Y243717D03*
X271024Y284357D03*
D32*
X271024Y365256D03*
D53*
X270770Y122051D03*
D34*
X270770Y203204D03*
D33*
X270770Y243717D03*
X270770Y284357D03*
D32*
X270770Y365256D03*
D53*
X270516Y122051D03*
D34*
X270516Y203204D03*
D33*
X270516Y243717D03*
X270516Y284357D03*
D32*
X270516Y365256D03*
D34*
X270262Y122178D03*
X270262Y203204D03*
D33*
X270262Y243717D03*
X270262Y284357D03*
D32*
X270262Y365256D03*
D33*
X270008Y122305D03*
D34*
X270008Y203204D03*
D33*
X270008Y243717D03*
X270008Y284357D03*
D32*
X270008Y365256D03*
D33*
X269754Y122305D03*
D34*
X269754Y203204D03*
D33*
X269754Y243717D03*
X269754Y284357D03*
D32*
X269754Y365256D03*
D33*
X269500Y122305D03*
D34*
X269500Y203204D03*
D33*
X269500Y243717D03*
X269500Y284357D03*
X269500Y365383D03*
X269246Y122305D03*
D34*
X269246Y203204D03*
D33*
X269246Y243717D03*
X269246Y284357D03*
X269246Y365383D03*
X268992Y122305D03*
D34*
X268992Y203204D03*
D33*
X268992Y243717D03*
X268992Y284357D03*
D34*
X268992Y365510D03*
D33*
X268738Y122305D03*
D34*
X268738Y203204D03*
D33*
X268738Y243717D03*
X268738Y284357D03*
D34*
X268738Y365510D03*
D33*
X268484Y122305D03*
D34*
X268484Y203204D03*
D33*
X268484Y243717D03*
X268484Y284357D03*
D34*
X268484Y365510D03*
D33*
X268230Y122305D03*
D34*
X268230Y203204D03*
D33*
X268230Y243717D03*
X268230Y284357D03*
D34*
X268230Y365510D03*
D33*
X267976Y122305D03*
D34*
X267976Y203204D03*
D33*
X267976Y243717D03*
X267976Y284357D03*
D34*
X267976Y365510D03*
D33*
X267722Y122305D03*
D34*
X267722Y203204D03*
D33*
X267722Y243717D03*
X267722Y284357D03*
D34*
X267722Y365510D03*
D33*
X267468Y122305D03*
D34*
X267468Y203204D03*
D33*
X267468Y243717D03*
X267468Y284357D03*
D34*
X267468Y365510D03*
D33*
X267214Y122305D03*
D34*
X267214Y203204D03*
D33*
X267214Y243717D03*
X267214Y284357D03*
D34*
X267214Y365510D03*
D33*
X266960Y122305D03*
D34*
X266960Y203204D03*
D33*
X266960Y243717D03*
X266960Y284357D03*
D34*
X266960Y365510D03*
D33*
X266706Y122305D03*
D34*
X266706Y203204D03*
D33*
X266706Y243717D03*
X266706Y284357D03*
D34*
X266706Y365510D03*
D33*
X266452Y122305D03*
D34*
X266452Y203204D03*
D33*
X266452Y243717D03*
X266452Y284357D03*
D34*
X266452Y365510D03*
D33*
X266198Y122305D03*
D34*
X266198Y203204D03*
D33*
X266198Y243717D03*
X266198Y284357D03*
D34*
X266198Y365510D03*
D33*
X265944Y122305D03*
D34*
X265944Y203204D03*
D33*
X265944Y243717D03*
X265944Y284357D03*
D34*
X265944Y365510D03*
D33*
X265690Y122305D03*
D34*
X265690Y203204D03*
D33*
X265690Y243717D03*
X265690Y284357D03*
D34*
X265690Y365510D03*
D33*
X265436Y122305D03*
D34*
X265436Y203204D03*
D33*
X265436Y243717D03*
X265436Y284357D03*
D34*
X265436Y365510D03*
D33*
X265182Y122305D03*
D34*
X265182Y203204D03*
D33*
X265182Y243717D03*
X265182Y284357D03*
D34*
X265182Y365510D03*
D33*
X264928Y122305D03*
D34*
X264928Y203204D03*
D33*
X264928Y243717D03*
X264928Y284357D03*
D34*
X264928Y365510D03*
D33*
X264674Y122305D03*
D34*
X264674Y203204D03*
D33*
X264674Y243717D03*
X264674Y284357D03*
D34*
X264674Y365510D03*
D33*
X264420Y122305D03*
D34*
X264420Y203204D03*
D33*
X264420Y243717D03*
X264420Y284357D03*
D34*
X264420Y365510D03*
D33*
X264166Y122305D03*
D34*
X264166Y203204D03*
D33*
X264166Y243717D03*
X264166Y284357D03*
D34*
X264166Y365510D03*
D33*
X263912Y122305D03*
D34*
X263912Y203204D03*
D33*
X263912Y243717D03*
X263912Y284357D03*
D34*
X263912Y365510D03*
D33*
X263658Y122305D03*
D34*
X263658Y203204D03*
D33*
X263658Y243717D03*
X263658Y284357D03*
D34*
X263658Y365510D03*
D33*
X263404Y122305D03*
D34*
X263404Y203204D03*
D33*
X263404Y243717D03*
X263404Y284357D03*
D34*
X263404Y365510D03*
D33*
X263150Y122305D03*
D34*
X263150Y203204D03*
D33*
X263150Y243717D03*
X263150Y284357D03*
D34*
X263150Y365510D03*
D33*
X262896Y122305D03*
D34*
X262896Y203204D03*
D33*
X262896Y243717D03*
X262896Y284357D03*
D34*
X262896Y365510D03*
D33*
X262642Y122305D03*
D34*
X262642Y203204D03*
D33*
X262642Y243717D03*
X262642Y284357D03*
D34*
X262642Y365510D03*
D33*
X262388Y122305D03*
D34*
X262388Y203204D03*
D33*
X262388Y243717D03*
X262388Y284357D03*
D34*
X262388Y365510D03*
D33*
X262134Y122305D03*
D34*
X262134Y203204D03*
D33*
X262134Y243717D03*
X262134Y284357D03*
D34*
X262134Y365510D03*
D33*
X261880Y122305D03*
D34*
X261880Y203204D03*
D33*
X261880Y243717D03*
X261880Y284357D03*
D34*
X261880Y365510D03*
D33*
X261626Y122305D03*
D34*
X261626Y203204D03*
D33*
X261626Y243717D03*
X261626Y284357D03*
D34*
X261626Y365510D03*
D33*
X261372Y122305D03*
X261372Y203331D03*
X261372Y243717D03*
X261372Y284357D03*
D34*
X261372Y365510D03*
D33*
X261118Y122305D03*
D32*
X261118Y203458D03*
D33*
X261118Y243717D03*
X261118Y284357D03*
D34*
X261118Y365510D03*
D33*
X260864Y122305D03*
D32*
X260864Y203458D03*
D33*
X260864Y243717D03*
X260864Y284357D03*
D32*
X260864Y365764D03*
D33*
X260610Y122305D03*
D32*
X260610Y203458D03*
D33*
X260610Y243717D03*
X260610Y284357D03*
D32*
X260610Y365510D03*
D33*
X260356Y122305D03*
D32*
X260356Y203458D03*
D33*
X260356Y243717D03*
X260356Y284357D03*
D31*
X260356Y365383D03*
D33*
X260102Y122305D03*
D32*
X260102Y203458D03*
D33*
X260102Y243717D03*
X260102Y284357D03*
D31*
X260102Y365383D03*
D33*
X259848Y122305D03*
D30*
X259848Y203204D03*
D32*
X259848Y243844D03*
D33*
X259848Y284357D03*
D31*
X259848Y365637D03*
D33*
X259594Y122305D03*
D31*
X259594Y203331D03*
X259594Y243971D03*
D33*
X259594Y284357D03*
D29*
X259594Y365637D03*
D32*
X259340Y122178D03*
D31*
X259340Y203331D03*
X259340Y243971D03*
D30*
X259340Y284484D03*
D27*
X259340Y365510D03*
D32*
X259086Y122178D03*
D31*
X259086Y203331D03*
D30*
X259086Y243844D03*
D29*
X259086Y284357D03*
D24*
X259086Y365510D03*
D31*
X258832Y122051D03*
X258832Y203331D03*
D29*
X258832Y243717D03*
X258832Y284357D03*
D24*
X258832Y365510D03*
D31*
X258578Y122051D03*
D30*
X258578Y203204D03*
D29*
X258578Y243717D03*
D27*
X258578Y284230D03*
D24*
X258578Y365510D03*
D32*
X258324Y121924D03*
D29*
X258324Y203077D03*
D27*
X258324Y243844D03*
D26*
X258324Y284357D03*
D22*
X258324Y365510D03*
D31*
X258070Y122051D03*
D27*
X258070Y203204D03*
D26*
X258070Y243717D03*
D24*
X258070Y284230D03*
D28*
X258070Y365510D03*
D31*
X257816Y122051D03*
D26*
X257816Y203077D03*
D24*
X257816Y243844D03*
D35*
X257816Y284357D03*
D36*
X257816Y365510D03*
D29*
X257562Y122051D03*
D26*
X257562Y203077D03*
D24*
X257562Y243844D03*
D19*
X257562Y284357D03*
D25*
X257562Y365510D03*
D27*
X257308Y121924D03*
D24*
X257308Y203204D03*
D35*
X257308Y243717D03*
D17*
X257308Y284357D03*
D52*
X257308Y365510D03*
D27*
X257054Y121924D03*
D35*
X257054Y203077D03*
D19*
X257054Y243717D03*
D37*
X257054Y284357D03*
D38*
X257054Y365256D03*
D24*
X256800Y121924D03*
D19*
X256800Y203077D03*
D37*
X256800Y243717D03*
D52*
X256800Y284230D03*
D12*
X256800Y365256D03*
D24*
X256546Y121924D03*
D17*
X256546Y203077D03*
D16*
X256546Y243717D03*
D15*
X256546Y284230D03*
D63*
X256546Y353318D03*
D22*
X256292Y121924D03*
D37*
X256292Y203077D03*
D16*
X256292Y243717D03*
D38*
X256292Y284230D03*
D60*
X256292Y353318D03*
D22*
X256038Y121924D03*
D16*
X256038Y203077D03*
D45*
X256038Y243463D03*
D50*
X256038Y284103D03*
D36*
X255784Y121924D03*
D15*
X255784Y202950D03*
D50*
X255784Y243463D03*
D64*
X255784Y275721D03*
D25*
X255530Y121924D03*
D14*
X255530Y202823D03*
D65*
X255530Y237113D03*
D23*
X255276Y121797D03*
D66*
X255276Y198759D03*
D45*
X255022Y121797D03*
D56*
X255022Y198759D03*
D14*
X254768Y121797D03*
D67*
X254514Y121416D03*
D68*
X251720Y367923D03*
D14*
X251466Y365891D03*
D21*
X251212Y365891D03*
D15*
X250958Y365764D03*
D69*
X250704Y252099D03*
D37*
X250704Y365891D03*
D39*
X250450Y244352D03*
D17*
X250450Y365891D03*
D38*
X250196Y244098D03*
D19*
X250196Y365891D03*
D45*
X249942Y243971D03*
D22*
X249942Y365764D03*
D13*
X249688Y128274D03*
X249688Y129544D03*
X249688Y130814D03*
X249688Y132084D03*
X249688Y133354D03*
X249688Y134624D03*
X249688Y136402D03*
D25*
X249688Y244098D03*
D35*
X249688Y365637D03*
D18*
X249434Y122559D03*
D36*
X249434Y244098D03*
D24*
X249434Y365764D03*
D21*
X249180Y122305D03*
D28*
X249180Y244098D03*
D27*
X249180Y365764D03*
D15*
X248926Y122432D03*
D22*
X248926Y244098D03*
D29*
X248926Y365891D03*
D52*
X248672Y122432D03*
D35*
X248672Y243971D03*
D29*
X248672Y365637D03*
D37*
X248418Y122305D03*
D24*
X248418Y243844D03*
D30*
X248418Y365764D03*
D17*
X248164Y122305D03*
D26*
X248164Y243971D03*
D31*
X248164Y365891D03*
D19*
X247910Y122305D03*
D27*
X247910Y243844D03*
D31*
X247910Y365891D03*
D35*
X247656Y122305D03*
D29*
X247656Y243971D03*
D32*
X247656Y365764D03*
D24*
X247402Y122178D03*
D30*
X247402Y244098D03*
D33*
X247402Y365637D03*
D24*
X247148Y122178D03*
D30*
X247148Y244098D03*
D33*
X247148Y365637D03*
D29*
X246894Y122305D03*
D31*
X246894Y243971D03*
D34*
X246894Y365510D03*
D29*
X246640Y122305D03*
D31*
X246640Y243971D03*
D34*
X246640Y365510D03*
D30*
X246386Y122178D03*
D32*
X246386Y244098D03*
D34*
X246386Y365510D03*
D30*
X246132Y122178D03*
D32*
X246132Y244098D03*
D33*
X246132Y365637D03*
D31*
X245878Y122305D03*
D32*
X245878Y244098D03*
D33*
X245878Y365637D03*
D31*
X245624Y122305D03*
D32*
X245624Y244098D03*
D33*
X245624Y365637D03*
D31*
X245370Y122305D03*
D32*
X245370Y244098D03*
D33*
X245370Y365637D03*
D34*
X245116Y122432D03*
D32*
X245116Y244098D03*
D33*
X245116Y365637D03*
D53*
X244862Y122305D03*
D32*
X244862Y244098D03*
D33*
X244862Y365637D03*
D34*
X244608Y122432D03*
D32*
X244608Y244098D03*
D33*
X244608Y365637D03*
D34*
X244354Y122432D03*
D32*
X244354Y244098D03*
D33*
X244354Y365637D03*
D34*
X244100Y122432D03*
D32*
X244100Y244098D03*
D33*
X244100Y365637D03*
D34*
X243846Y122432D03*
D32*
X243846Y244098D03*
D33*
X243846Y365637D03*
D34*
X243592Y122432D03*
D32*
X243592Y244098D03*
D33*
X243592Y365637D03*
D34*
X243338Y122432D03*
D32*
X243338Y244098D03*
D33*
X243338Y365637D03*
D34*
X243084Y122432D03*
D32*
X243084Y244098D03*
D33*
X243084Y365637D03*
D34*
X242830Y122432D03*
D32*
X242830Y244098D03*
D33*
X242830Y365637D03*
D34*
X242576Y122432D03*
D32*
X242576Y244098D03*
D33*
X242576Y365637D03*
D34*
X242322Y122432D03*
D32*
X242322Y244098D03*
D33*
X242322Y365637D03*
D34*
X242068Y122432D03*
D32*
X242068Y244098D03*
D33*
X242068Y365637D03*
D34*
X241814Y122432D03*
D32*
X241814Y244098D03*
D33*
X241814Y365637D03*
D34*
X241560Y122432D03*
D32*
X241560Y244098D03*
D33*
X241560Y365637D03*
D34*
X241306Y122432D03*
D32*
X241306Y244098D03*
D33*
X241306Y365637D03*
D34*
X241052Y122432D03*
D32*
X241052Y244098D03*
D33*
X241052Y365637D03*
D53*
X240798Y122305D03*
D32*
X240798Y244098D03*
D33*
X240798Y365637D03*
D34*
X240544Y122432D03*
D32*
X240544Y244098D03*
D33*
X240544Y365637D03*
X240290Y122559D03*
D32*
X240290Y244098D03*
D33*
X240290Y365637D03*
X240036Y122559D03*
D32*
X240036Y244098D03*
D33*
X240036Y365637D03*
X239782Y122559D03*
D32*
X239782Y244098D03*
D33*
X239782Y365637D03*
X239528Y122559D03*
D32*
X239528Y244098D03*
D33*
X239528Y365637D03*
X239274Y122559D03*
D32*
X239274Y244098D03*
D33*
X239274Y365637D03*
X239020Y122559D03*
D32*
X239020Y244098D03*
D33*
X239020Y365637D03*
X238766Y122559D03*
D32*
X238766Y244098D03*
D33*
X238766Y365637D03*
X238512Y122559D03*
D32*
X238512Y244098D03*
D33*
X238512Y365637D03*
X238258Y122559D03*
D32*
X238258Y244098D03*
D33*
X238258Y365637D03*
X238004Y122559D03*
D32*
X238004Y244098D03*
D33*
X238004Y365637D03*
X237750Y122559D03*
D32*
X237750Y244098D03*
D33*
X237750Y365637D03*
X237496Y122559D03*
D32*
X237496Y244098D03*
D33*
X237496Y365637D03*
X237242Y122559D03*
D32*
X237242Y244098D03*
D33*
X237242Y365637D03*
X236988Y122559D03*
D32*
X236988Y244098D03*
D33*
X236988Y365637D03*
X236734Y122559D03*
D32*
X236734Y244098D03*
D33*
X236734Y365637D03*
X236480Y122559D03*
D32*
X236480Y244098D03*
D33*
X236480Y365637D03*
X236226Y122559D03*
D32*
X236226Y244098D03*
D33*
X236226Y365637D03*
X235972Y122559D03*
D32*
X235972Y244098D03*
D33*
X235972Y365637D03*
X235718Y122559D03*
D32*
X235718Y244098D03*
D33*
X235718Y365637D03*
X235464Y122559D03*
D32*
X235464Y244098D03*
D33*
X235464Y365637D03*
X235210Y122559D03*
D32*
X235210Y244098D03*
D33*
X235210Y365637D03*
X234956Y122559D03*
D32*
X234956Y244098D03*
D33*
X234956Y365637D03*
X234702Y122559D03*
D32*
X234702Y244098D03*
D33*
X234702Y365637D03*
X234448Y122559D03*
D32*
X234448Y244098D03*
D33*
X234448Y365637D03*
X234194Y122559D03*
D32*
X234194Y244098D03*
D33*
X234194Y365637D03*
X233940Y122559D03*
D32*
X233940Y244098D03*
D33*
X233940Y365637D03*
X233686Y122559D03*
D32*
X233686Y244098D03*
D33*
X233686Y365637D03*
X233432Y122559D03*
D32*
X233432Y244098D03*
D33*
X233432Y365637D03*
X233178Y122559D03*
D32*
X233178Y244098D03*
D33*
X233178Y365637D03*
X232924Y122559D03*
D32*
X232924Y244098D03*
D33*
X232924Y365637D03*
X232670Y122559D03*
D32*
X232670Y244098D03*
D33*
X232670Y365637D03*
X232416Y122559D03*
D32*
X232416Y244098D03*
D33*
X232416Y365637D03*
X232162Y122559D03*
D32*
X232162Y244098D03*
D33*
X232162Y365637D03*
X231908Y122559D03*
D32*
X231908Y244098D03*
D33*
X231908Y365637D03*
X231654Y122559D03*
D32*
X231654Y244098D03*
D33*
X231654Y365637D03*
X231400Y122559D03*
D32*
X231400Y244098D03*
D33*
X231400Y365637D03*
X231146Y122559D03*
D32*
X231146Y244098D03*
D33*
X231146Y365637D03*
X230892Y122559D03*
D32*
X230892Y244098D03*
D33*
X230892Y365637D03*
X230638Y122559D03*
D32*
X230638Y244098D03*
D33*
X230638Y365637D03*
X230384Y122559D03*
D32*
X230384Y244098D03*
D33*
X230384Y365637D03*
X230130Y122559D03*
D32*
X230130Y244098D03*
D33*
X230130Y365637D03*
X229876Y122559D03*
D32*
X229876Y244098D03*
D33*
X229876Y365637D03*
X229622Y122559D03*
D32*
X229622Y244098D03*
D33*
X229622Y365637D03*
X229368Y122559D03*
D32*
X229368Y244098D03*
D33*
X229368Y365637D03*
X229114Y122559D03*
D32*
X229114Y244098D03*
D33*
X229114Y365637D03*
X228860Y122559D03*
D32*
X228860Y244098D03*
D33*
X228860Y365637D03*
X228606Y122559D03*
D32*
X228606Y244098D03*
D33*
X228606Y365637D03*
X228352Y122559D03*
D32*
X228352Y244098D03*
D33*
X228352Y365637D03*
X228098Y122559D03*
D32*
X228098Y244098D03*
D33*
X228098Y365637D03*
X227844Y122559D03*
D32*
X227844Y244098D03*
D34*
X227844Y365764D03*
D33*
X227590Y122559D03*
D32*
X227590Y244098D03*
D34*
X227590Y365764D03*
D33*
X227336Y122559D03*
D32*
X227336Y244098D03*
D34*
X227336Y365764D03*
D33*
X227082Y122559D03*
D32*
X227082Y244098D03*
D34*
X227082Y365764D03*
D33*
X226828Y122559D03*
D32*
X226828Y244098D03*
D34*
X226828Y365764D03*
D33*
X226574Y122559D03*
D32*
X226574Y244098D03*
D34*
X226574Y365764D03*
D33*
X226320Y122559D03*
D32*
X226320Y244098D03*
D34*
X226320Y365764D03*
D33*
X226066Y122559D03*
D32*
X226066Y244098D03*
D34*
X226066Y365764D03*
D33*
X225812Y122559D03*
D32*
X225812Y244098D03*
D34*
X225812Y365764D03*
D33*
X225558Y122559D03*
D32*
X225558Y244098D03*
D34*
X225558Y365764D03*
D33*
X225304Y122559D03*
D32*
X225304Y244098D03*
D34*
X225304Y365764D03*
X225050Y122686D03*
D32*
X225050Y244098D03*
D34*
X225050Y365764D03*
D53*
X224796Y122813D03*
D32*
X224796Y244098D03*
D34*
X224796Y365764D03*
D53*
X224542Y122813D03*
D32*
X224542Y244098D03*
D34*
X224542Y365764D03*
D53*
X224288Y122813D03*
D32*
X224288Y244098D03*
D34*
X224288Y365764D03*
D53*
X224034Y122813D03*
D32*
X224034Y244098D03*
D34*
X224034Y365764D03*
D53*
X223780Y122813D03*
D32*
X223780Y244098D03*
D34*
X223780Y365764D03*
D53*
X223526Y122813D03*
D32*
X223526Y244098D03*
D34*
X223526Y365764D03*
D53*
X223272Y122813D03*
D32*
X223272Y244098D03*
D34*
X223272Y365764D03*
D53*
X223018Y122813D03*
D32*
X223018Y244098D03*
D34*
X223018Y365764D03*
D53*
X222764Y122813D03*
D33*
X222764Y244225D03*
D34*
X222764Y365764D03*
D53*
X222510Y122813D03*
D33*
X222510Y244225D03*
D34*
X222510Y365764D03*
D53*
X222256Y122813D03*
D33*
X222256Y244225D03*
D34*
X222256Y365764D03*
D53*
X222002Y122813D03*
D33*
X222002Y244225D03*
D34*
X222002Y365764D03*
D53*
X221748Y122813D03*
D32*
X221748Y244352D03*
D34*
X221748Y365764D03*
D53*
X221494Y122813D03*
D32*
X221494Y244352D03*
D34*
X221494Y365764D03*
D53*
X221240Y122813D03*
D32*
X221240Y244352D03*
D34*
X221240Y365764D03*
D53*
X220986Y122813D03*
D32*
X220986Y244352D03*
D34*
X220986Y365764D03*
D53*
X220732Y122813D03*
D32*
X220732Y244352D03*
D34*
X220732Y365764D03*
D53*
X220478Y122813D03*
D32*
X220478Y244352D03*
X220478Y366018D03*
D53*
X220224Y122813D03*
D32*
X220224Y244352D03*
D31*
X220224Y365891D03*
D53*
X219970Y122813D03*
D31*
X219970Y244225D03*
X219970Y365891D03*
D53*
X219716Y122813D03*
D31*
X219716Y244225D03*
D32*
X219716Y365764D03*
D53*
X219462Y122813D03*
D31*
X219462Y244225D03*
X219462Y365891D03*
D53*
X219208Y122813D03*
D31*
X219208Y244225D03*
D30*
X219208Y366018D03*
D53*
X218954Y122813D03*
D31*
X218954Y244225D03*
D29*
X218954Y365891D03*
D32*
X218700Y122432D03*
D31*
X218700Y244225D03*
D29*
X218700Y365891D03*
D32*
X218446Y122432D03*
D31*
X218446Y244225D03*
D26*
X218446Y365891D03*
D32*
X218192Y122432D03*
D30*
X218192Y244098D03*
D24*
X218192Y365764D03*
D32*
X217938Y122432D03*
D30*
X217938Y244098D03*
D24*
X217938Y365764D03*
D32*
X217684Y122432D03*
D29*
X217684Y244225D03*
D22*
X217684Y365764D03*
D30*
X217430Y122432D03*
D27*
X217430Y244098D03*
D17*
X217430Y365891D03*
D30*
X217176Y122432D03*
D24*
X217176Y244098D03*
D37*
X217176Y365891D03*
D30*
X216922Y122432D03*
D35*
X216922Y244225D03*
D25*
X216922Y365764D03*
D30*
X216668Y122432D03*
D19*
X216668Y244225D03*
D23*
X216668Y365637D03*
D27*
X216414Y122432D03*
D28*
X216414Y244098D03*
D46*
X216414Y365764D03*
D27*
X216160Y122432D03*
D36*
X216160Y244098D03*
D18*
X216160Y365383D03*
D24*
X215906Y122432D03*
D52*
X215906Y244098D03*
D22*
X215652Y122432D03*
D15*
X215652Y244098D03*
D28*
X215398Y122432D03*
D38*
X215398Y244098D03*
D36*
X215144Y122432D03*
D12*
X215144Y243844D03*
D25*
X214890Y122432D03*
D59*
X214890Y233557D03*
D15*
X214636Y122178D03*
D45*
X214382Y122305D03*
D50*
X214128Y122051D03*
D70*
X213874Y117860D03*
D71*
X210826Y316488D03*
D42*
X210826Y321441D03*
X210826Y322711D03*
X210826Y323981D03*
X210826Y325251D03*
X210826Y326521D03*
X210826Y327791D03*
X210826Y329061D03*
X210826Y330331D03*
X210826Y331601D03*
X210826Y332871D03*
X210826Y334141D03*
X210826Y335411D03*
X210826Y336681D03*
X210826Y337951D03*
D60*
X210826Y339348D03*
D41*
X210572Y311535D03*
D47*
X210572Y326140D03*
D46*
X210318Y325632D03*
D15*
X210064Y325632D03*
D16*
X209810Y325759D03*
D58*
X209556Y169803D03*
D42*
X209556Y175899D03*
D41*
X209556Y176915D03*
D36*
X209556Y325378D03*
D43*
X209302Y149864D03*
D13*
X209302Y150626D03*
X209302Y151134D03*
X209302Y151642D03*
X209302Y152150D03*
X209302Y152658D03*
X209302Y153166D03*
X209302Y153674D03*
X209302Y154182D03*
X209302Y154690D03*
X209302Y155198D03*
X209302Y155706D03*
X209302Y156214D03*
X209302Y156722D03*
X209302Y157230D03*
X209302Y157738D03*
X209302Y158246D03*
X209302Y158754D03*
X209302Y159262D03*
X209302Y159770D03*
X209302Y160278D03*
X209302Y160786D03*
X209302Y161294D03*
X209302Y161802D03*
X209302Y162310D03*
X209302Y162818D03*
X209302Y163326D03*
X209302Y163834D03*
D72*
X209302Y170692D03*
D17*
X209302Y325505D03*
D12*
X209048Y163580D03*
D19*
X209048Y325505D03*
D38*
X208794Y163326D03*
D22*
X208794Y325632D03*
D23*
X208540Y163199D03*
D35*
X208540Y325505D03*
D37*
X208286Y163453D03*
D26*
X208286Y325505D03*
D36*
X208032Y163326D03*
D29*
X208032Y325505D03*
D28*
X207778Y163326D03*
D29*
X207778Y325505D03*
D19*
X207524Y163199D03*
D31*
X207524Y325505D03*
D35*
X207270Y163199D03*
D31*
X207270Y325505D03*
D26*
X207016Y163199D03*
D31*
X207016Y325505D03*
D29*
X206762Y163199D03*
D31*
X206762Y325505D03*
D29*
X206508Y163199D03*
D31*
X206508Y325505D03*
D30*
X206254Y163072D03*
D31*
X206254Y325505D03*
X206000Y163199D03*
X206000Y325505D03*
X205746Y163199D03*
D32*
X205746Y325378D03*
D31*
X205492Y163199D03*
D32*
X205492Y325378D03*
D31*
X205238Y163199D03*
D32*
X205238Y325378D03*
D31*
X204984Y163199D03*
D32*
X204984Y325378D03*
X204730Y163326D03*
X204730Y325378D03*
D33*
X204476Y163199D03*
D32*
X204476Y325378D03*
D33*
X204222Y163199D03*
D32*
X204222Y325378D03*
D33*
X203968Y163199D03*
D32*
X203968Y325378D03*
D33*
X203714Y163199D03*
D32*
X203714Y325378D03*
X203460Y163326D03*
X203460Y325378D03*
X203206Y163326D03*
X203206Y325378D03*
D33*
X202952Y163453D03*
D32*
X202952Y325378D03*
D34*
X202698Y163580D03*
D32*
X202698Y325378D03*
D34*
X202444Y163580D03*
D32*
X202444Y325378D03*
D34*
X202190Y163580D03*
D32*
X202190Y325378D03*
D34*
X201936Y163580D03*
D32*
X201936Y325378D03*
D34*
X201682Y163580D03*
D32*
X201682Y325378D03*
D34*
X201428Y163580D03*
D32*
X201428Y325378D03*
D34*
X201174Y163580D03*
D32*
X201174Y325378D03*
D34*
X200920Y163580D03*
D32*
X200920Y325378D03*
D34*
X200666Y163580D03*
D32*
X200666Y325378D03*
D34*
X200412Y163580D03*
D32*
X200412Y325378D03*
D34*
X200158Y163580D03*
D32*
X200158Y325378D03*
D34*
X199904Y163580D03*
D32*
X199904Y325378D03*
D34*
X199650Y163580D03*
D32*
X199650Y325378D03*
D34*
X199396Y163580D03*
D32*
X199396Y325378D03*
D34*
X199142Y163580D03*
D32*
X199142Y325378D03*
D34*
X198888Y163580D03*
D32*
X198888Y325378D03*
D34*
X198634Y163580D03*
D32*
X198634Y325378D03*
D34*
X198380Y163580D03*
D32*
X198380Y325378D03*
D34*
X198126Y163580D03*
D32*
X198126Y325378D03*
D34*
X197872Y163580D03*
D32*
X197872Y325378D03*
D34*
X197618Y163580D03*
D32*
X197618Y325378D03*
D34*
X197364Y163580D03*
D32*
X197364Y325378D03*
D34*
X197110Y163580D03*
D32*
X197110Y325378D03*
D34*
X196856Y163580D03*
D32*
X196856Y325378D03*
D34*
X196602Y163580D03*
D32*
X196602Y325378D03*
D34*
X196348Y163580D03*
D33*
X196348Y325505D03*
D34*
X196094Y163580D03*
D33*
X196094Y325505D03*
D34*
X195840Y163580D03*
D32*
X195840Y325632D03*
D34*
X195586Y163580D03*
D32*
X195586Y325632D03*
D34*
X195332Y163580D03*
D32*
X195332Y325632D03*
D34*
X195078Y163580D03*
D32*
X195078Y325632D03*
D34*
X194824Y163580D03*
D32*
X194824Y325632D03*
D34*
X194570Y163580D03*
D32*
X194570Y325632D03*
D34*
X194316Y163580D03*
D32*
X194316Y325632D03*
D34*
X194062Y163580D03*
D32*
X194062Y325632D03*
D34*
X193808Y163580D03*
D32*
X193808Y325632D03*
D34*
X193554Y163580D03*
D32*
X193554Y325632D03*
D34*
X193300Y163580D03*
D32*
X193300Y325632D03*
D34*
X193046Y163580D03*
D32*
X193046Y325632D03*
D34*
X192792Y163580D03*
D32*
X192792Y325632D03*
D34*
X192538Y163580D03*
D32*
X192538Y325632D03*
D34*
X192284Y163580D03*
D32*
X192284Y325632D03*
D34*
X192030Y163580D03*
D32*
X192030Y325632D03*
D34*
X191776Y163580D03*
D32*
X191776Y325632D03*
D34*
X191522Y163580D03*
D32*
X191522Y325632D03*
D34*
X191268Y163580D03*
D32*
X191268Y325632D03*
D34*
X191014Y163580D03*
D32*
X191014Y325632D03*
D34*
X190760Y163580D03*
D32*
X190760Y325632D03*
D34*
X190506Y163580D03*
D32*
X190506Y325632D03*
D34*
X190252Y163580D03*
D32*
X190252Y325632D03*
D34*
X189998Y163580D03*
D32*
X189998Y325632D03*
D34*
X189744Y163580D03*
D32*
X189744Y325632D03*
D34*
X189490Y163580D03*
D32*
X189490Y325632D03*
D34*
X189236Y163580D03*
D32*
X189236Y325632D03*
D34*
X188982Y163580D03*
D32*
X188982Y325632D03*
D34*
X188728Y163580D03*
D32*
X188728Y325632D03*
D34*
X188474Y163580D03*
D32*
X188474Y325632D03*
D34*
X188220Y163580D03*
D32*
X188220Y325632D03*
D34*
X187966Y163580D03*
D32*
X187966Y325632D03*
D34*
X187712Y163580D03*
D32*
X187712Y325632D03*
D34*
X187458Y163580D03*
D32*
X187458Y325632D03*
D34*
X187204Y163580D03*
D32*
X187204Y325632D03*
D34*
X186950Y163580D03*
D32*
X186950Y325632D03*
D34*
X186696Y163580D03*
D32*
X186696Y325632D03*
D34*
X186442Y163580D03*
D32*
X186442Y325632D03*
D34*
X186188Y163580D03*
D32*
X186188Y325632D03*
D34*
X185934Y163580D03*
D32*
X185934Y325632D03*
D34*
X185680Y163580D03*
D32*
X185680Y325632D03*
D34*
X185426Y163580D03*
D32*
X185426Y325632D03*
D34*
X185172Y163580D03*
D32*
X185172Y325632D03*
D34*
X184918Y163580D03*
D32*
X184918Y325632D03*
D34*
X184664Y163580D03*
D32*
X184664Y325632D03*
D34*
X184410Y163580D03*
D32*
X184410Y325632D03*
D34*
X184156Y163580D03*
D32*
X184156Y325632D03*
D34*
X183902Y163580D03*
D32*
X183902Y325632D03*
D34*
X183648Y163580D03*
D32*
X183648Y325632D03*
D34*
X183394Y163580D03*
D32*
X183394Y325632D03*
D34*
X183140Y163580D03*
D32*
X183140Y325632D03*
D34*
X182886Y163580D03*
D32*
X182886Y325632D03*
D34*
X182632Y163580D03*
D32*
X182632Y325632D03*
D34*
X182378Y163580D03*
D32*
X182378Y325632D03*
D34*
X182124Y163580D03*
D32*
X182124Y325632D03*
D34*
X181870Y163580D03*
D32*
X181870Y325632D03*
D34*
X181616Y163580D03*
D32*
X181616Y325632D03*
D34*
X181362Y163580D03*
D32*
X181362Y325632D03*
D34*
X181108Y163580D03*
D32*
X181108Y325632D03*
D34*
X180854Y163580D03*
D32*
X180854Y325632D03*
D34*
X180600Y163580D03*
D32*
X180600Y325632D03*
D34*
X180346Y163580D03*
D32*
X180346Y325632D03*
D34*
X180092Y163580D03*
D32*
X180092Y325632D03*
D34*
X179838Y163580D03*
D32*
X179838Y325632D03*
D34*
X179584Y163580D03*
D32*
X179584Y325632D03*
D34*
X179330Y163580D03*
D32*
X179330Y325632D03*
D34*
X179076Y163580D03*
D32*
X179076Y325632D03*
D34*
X178822Y163580D03*
D32*
X178822Y325632D03*
D33*
X178568Y163453D03*
D30*
X178568Y325632D03*
D32*
X178314Y163326D03*
D30*
X178314Y325632D03*
D32*
X178060Y163326D03*
D30*
X178060Y325632D03*
D32*
X177806Y163580D03*
D27*
X177806Y325632D03*
D31*
X177552Y163453D03*
D26*
X177552Y325505D03*
D30*
X177298Y163326D03*
D35*
X177298Y325505D03*
D30*
X177044Y163326D03*
D22*
X177044Y325632D03*
D30*
X176790Y163326D03*
D28*
X176790Y325632D03*
D27*
X176536Y163326D03*
D28*
X176536Y325632D03*
D26*
X176282Y163453D03*
D17*
X176282Y325505D03*
D26*
X176028Y163453D03*
D16*
X176028Y325759D03*
D35*
X175774Y163453D03*
D45*
X175774Y325505D03*
D22*
X175520Y163326D03*
D14*
X175520Y325505D03*
D19*
X175266Y163199D03*
D73*
X175266Y322330D03*
D13*
X175266Y340110D03*
D17*
X175012Y163199D03*
D74*
X175012Y322330D03*
D37*
X174758Y163199D03*
D16*
X174504Y163199D03*
D21*
X174250Y163199D03*
D12*
X173996Y163072D03*
D13*
X173996Y178058D03*
D61*
X173742Y163072D03*
D42*
X173488Y150753D03*
D10*
X100903Y96133D02*
X97174Y96133D01*
X100903Y96133D02*
X102767Y97997D01*
X100903Y99861D01*
X97174Y99861D01*
X99970Y99861D02*
X99970Y96133D01*
X102767Y101746D02*
X102767Y105475D01*
X101835Y105475D01*
X98106Y101746D01*
X97174Y101746D01*
X97174Y121851D02*
X100903Y121851D01*
X102767Y123715D01*
X100903Y125579D01*
X97174Y125579D01*
X99970Y125579D02*
X99970Y121851D01*
X101835Y129328D02*
X102767Y131193D01*
X101835Y129328D02*
X99970Y127464D01*
X98106Y127464D01*
X97174Y128396D01*
X97174Y130260D01*
X98106Y131193D01*
X99038Y131193D01*
X99970Y130260D01*
X99970Y127464D01*
X100903Y147340D02*
X97174Y147340D01*
X100903Y147340D02*
X102767Y149204D01*
X100903Y151068D01*
X97174Y151068D01*
X99970Y151068D02*
X99970Y147340D01*
X102767Y152953D02*
X102767Y156681D01*
X102767Y152953D02*
X99970Y152953D01*
X100903Y154817D01*
X100903Y155749D01*
X99970Y156681D01*
X98106Y156681D01*
X97174Y155749D01*
X97174Y153885D01*
X98106Y152953D01*
X97174Y172740D02*
X100903Y172740D01*
X102767Y174604D01*
X100903Y176468D01*
X97174Y176468D01*
X99970Y176468D02*
X99970Y172740D01*
X97174Y181149D02*
X102767Y181149D01*
X99970Y178353D01*
X99970Y182081D01*
X100903Y197827D02*
X97174Y197827D01*
X100903Y197827D02*
X102767Y199692D01*
X100903Y201556D01*
X97174Y201556D01*
X99970Y201556D02*
X99970Y197827D01*
X101835Y203440D02*
X102767Y204373D01*
X102767Y206237D01*
X101835Y207169D01*
X100903Y207169D01*
X99970Y206237D01*
X99970Y205305D01*
X99970Y206237D02*
X99038Y207169D01*
X98106Y207169D01*
X97174Y206237D01*
X97174Y204373D01*
X98106Y203440D01*
X97174Y223423D02*
X100903Y223423D01*
X102767Y225287D01*
X100903Y227152D01*
X97174Y227152D01*
X99970Y227152D02*
X99970Y223423D01*
X97174Y229036D02*
X97174Y232765D01*
X97174Y229036D02*
X100903Y232765D01*
X101835Y232765D01*
X102767Y231833D01*
X102767Y229968D01*
X101835Y229036D01*
X100903Y248785D02*
X97174Y248785D01*
X100903Y248785D02*
X102767Y250649D01*
X100903Y252513D01*
X97174Y252513D01*
X99970Y252513D02*
X99970Y248785D01*
X100903Y254398D02*
X102767Y256262D01*
X97174Y256262D01*
X97174Y254398D02*
X97174Y258126D01*
X97174Y274185D02*
X100903Y274185D01*
X102767Y276049D01*
X100903Y277913D01*
X97174Y277913D01*
X99970Y277913D02*
X99970Y274185D01*
X98106Y279798D02*
X101835Y279798D01*
X102767Y280730D01*
X102767Y282594D01*
X101835Y283526D01*
X98106Y283526D01*
X97174Y282594D01*
X97174Y280730D01*
X98106Y279798D01*
X101835Y283526D01*
X102767Y299436D02*
X97174Y299436D01*
X97174Y302232D01*
X98106Y303164D01*
X101835Y303164D01*
X102767Y302232D01*
X102767Y299436D01*
X101835Y305049D02*
X98106Y305049D01*
X101835Y305049D02*
X102767Y305981D01*
X102767Y307845D01*
X101835Y308777D01*
X98106Y308777D01*
X97174Y307845D01*
X97174Y305981D01*
X98106Y305049D01*
X101835Y308777D01*
X102767Y324985D02*
X97174Y324985D01*
X97174Y327781D01*
X98106Y328713D01*
X101835Y328713D01*
X102767Y327781D01*
X102767Y324985D01*
X100903Y330598D02*
X102767Y332462D01*
X97174Y332462D01*
X97174Y330598D02*
X97174Y334326D01*
X97174Y350229D02*
X102767Y350229D01*
X97174Y350229D02*
X97174Y353025D01*
X98106Y353957D01*
X101835Y353957D01*
X102767Y353025D01*
X102767Y350229D01*
X97174Y355842D02*
X97174Y359571D01*
X97174Y355842D02*
X100903Y359571D01*
X101835Y359571D01*
X102767Y358638D01*
X102767Y356774D01*
X101835Y355842D01*
X102767Y376009D02*
X101835Y376941D01*
X102767Y376009D02*
X102767Y374145D01*
X101835Y373213D01*
X98106Y373213D01*
X97174Y374145D01*
X97174Y376009D01*
X98106Y376941D01*
X99970Y376941D01*
X99970Y375077D01*
X97174Y378826D02*
X102767Y378826D01*
X97174Y382554D01*
X102767Y382554D01*
X102767Y384439D02*
X97174Y384439D01*
X97174Y387235D01*
X98106Y388167D01*
X101835Y388167D01*
X102767Y387235D01*
X102767Y384439D01*
D75*
X706120Y88900D02*
X712470Y95250D01*
X693420Y88900D02*
X687070Y95250D01*
X680720Y88900D01*
X668020Y88900D02*
X661670Y95250D01*
X655320Y88900D01*
X642620Y88900D02*
X636270Y95250D01*
X712470Y95250D02*
X712470Y133350D01*
X706120Y139700D01*
X693420Y139700D01*
X687070Y133350D01*
X680720Y139700D01*
X668020Y139700D01*
X661670Y133350D01*
X655320Y139700D01*
X642620Y139700D01*
X636270Y133350D01*
X687070Y133350D02*
X687070Y95250D01*
X661670Y95250D02*
X661670Y133350D01*
X636270Y133350D02*
X636270Y95250D01*
X642620Y88900D02*
X655320Y88900D01*
X668020Y88900D02*
X680720Y88900D01*
X693420Y88900D02*
X706120Y88900D01*
X636270Y95250D02*
X629920Y88900D01*
X617220Y88900D02*
X610870Y95250D01*
X636270Y133350D02*
X629920Y139700D01*
X617220Y139700D01*
X610870Y133350D01*
X610870Y95250D01*
X617220Y88900D02*
X629920Y88900D01*
M02*
